# xmcd
#
# Track frame offsets:
#	150
#	23687
#	36702
#	61717
#	82782
#	94297
#	111162
#	131017
#	137015
#	166982
#	189705
#	198550
#
# Disc length: 3000 seconds
#
# Revision: 1
# Processed by: cddbd v1.5PL3 Copyright (c) Steve Scherf et al.
# Submitted via: CDex 1.50Beta5
#
DISCID=a30bb60c
DTITLE=WRENCH - Black Holiday
DYEAR=1900
DGENRE=Rock
TTITLE0=Inner Concentration
TTITLE1=窓から外へ
TTITLE2=呼吸する夢
TTITLE3=空
TTITLE4=地図の向こう側
TTITLE5=レンダン
TTITLE6=Languages Made Monster
TTITLE7=Don't Touch
TTITLE8=無題(Free Title)
TTITLE9=Midnight Express
TTITLE10=G・Y・P・S・Y
TTITLE11=I'm So Cute
EXTD=
EXTT0=
EXTT1=
EXTT2=
EXTT3=
EXTT4=
EXTT5=
EXTT6=
EXTT7=
EXTT8=
EXTT9=
EXTT10=
EXTT11=
PLAYORDER=
